{"title":"Revolutionary Road 2008 DVD9rip English Klam","uid":6027516,"size":2024565249,"categoryP":"video","categoryS":"movies","magnet":"?xt=urn:btih:dabe1a0245b85be39a10ab5d823ebb7deb32eb7e&amp;dn=Revolutionary+Road+2008+DVD9rip+English+Klam&amp;tr=udp%3A%2F%2Ftracker.openbittorrent.com%3A80&amp;tr=udp%3A%2F%2Fopen.demonii.com%3A1337&amp;tr=udp%3A%2F%2Ftracker.coppersurfer.tk%3A6969&amp;tr=udp%3A%2F%2Fexodus.desync.com%3A6969","seeders":1,"leechers":0,"uploader":"Klambake","files":-1,"time":1291971407,"description":"With: Leonardo DiCaprio, Kate Winslet and Kathy Bates\n\nIt's 1955. Frank and April Wheeler, in the seventh year of their marriage, have fallen into a life that appears to most as being perfect. They live in the Connecticut suburbs with two young children. Frank commutes to New York City where he works in an office job while April stays at home as a housewife. But they're not happy. April has forgone her dream of becoming an actress, and Frank hates his job - one where he places little effort - although he has never figured out what his passion in life is. One day, April suggests that they move to Paris - a city where Frank visited during the war and loved, but where April has never been - as a means to rejuvenate their life. April's plan: she would be the breadwinner, getting a lucrative secretarial job for one of the major international organizations, while Frank would have free time to find himself and whatever his passion. Initially skeptical... \n\nGeneral:\n\nComplete name                    : Revolutionary\\Road.avi\nFormat                           : AVI\nFormat/Info                      : Audio Video Interleave\nFile size                        : 1.88 GiB\nDuration                         : 1h 54mn\nOverall bit rate                 : 2 357 Kbps\n\nVideo:\n\nFormat                           : MPEG-4 Visual\nFormat profile                   : Simple@L3\nFormat settings, BVOP            : No\nFormat settings, QPel            : No\nFormat settings, GMC             : No warppoints\nFormat settings, Matrix          : Default (H.263)\nCodec ID                         : XVID\nCodec ID/Hint                    : XviD\nDuration                         : 1h 54mn\nBit rate                         : 1 899 Kbps\nWidth                            : 720 pixels\nHeight                           : 576 pixels\nDisplay aspect ratio             : 5:4\nFrame rate                       : 25.000 fps\nStandard                         : PAL\nColor space                      : YUV\nChroma subsampling               : 4:2:0\nBit depth                        : 8 bits\nScan type                        : Progressive\nBits/(Pixel*Frame)               : 0.183\nStream size                      : 1.52 GiB (81%)\nWriting library                  : XviD 1.1.2 (UTC 2006-11-01)\n\nAudio:\n\nFormat                           : AC-3\nFormat/Info                      : Audio Coding 3\nMode extension                   : CM (complete main)\nCodec ID                         : 2000\nDuration                         : 1h 54mn\nBit rate mode                    : Constant\nBit rate                         : 448 Kbps\nChannel(s)                       : 6 channels\nChannel positions                : Front: L C R, Side: L R, LFE\nSampling rate                    : 48.0 KHz\nBit depth                        : 16 bits\nStream size                      : 366 MiB (19%)\nAlignment                        : Aligned on interleaves\nInterleave, duration             : 32 ms (0.80 video frame)\nInterleave, preload duration     : 512 ms","torrent":{"xt":"urn:btih:dabe1a0245b85be39a10ab5d823ebb7deb32eb7e","amp;dn":"Revolutionary+Road+2008+DVD9rip+English+Klam","amp;tr":["udp%3A%2F%2Ftracker.openbittorrent.com%3A80","udp%3A%2F%2Fopen.demonii.com%3A1337","udp%3A%2F%2Ftracker.coppersurfer.tk%3A6969","udp%3A%2F%2Fexodus.desync.com%3A6969"],"infoHash":"dabe1a0245b85be39a10ab5d823ebb7deb32eb7e","infoHashBuffer":{"type":"Buffer","data":[218,190,26,2,69,184,91,227,154,16,171,93,130,62,187,125,235,50,235,126]},"announce":[],"urlList":[]}}